# xmcd
#
# Track frame offsets: 
#        150
#        14655
#        34214
#        57686
#        79119
#        97094
#        118892
#        137631
#        152816
#        167557
#        183941
#        201843
#        219463
#        235344
#
# Disc length: 3340 seconds
#
# Revision: 1
# Processed by: cddbd v1.5.2PL0 Copyright (c) Steve Scherf et al.
# Submitted via: ExactAudioCopyFreeDBPlugin 1.0
#
DISCID=cb0d0a0e
DTITLE=Montgomery Gentry - Playlist:The Very Best of Montgomery Gentry
DYEAR=2012
DGENRE=Country
TTITLE0=Hillbilly Shoes
TTITLE1=She Couldn't Change Me
TTITLE2=Wanted Dead or Alive
TTITLE3=My Town
TTITLE4=Speed
TTITLE5=Hell Yeah
TTITLE6=Gone
TTITLE7=Some People Change
TTITLE8=Lucky Man
TTITLE9=What Do Ya Think About That
TTITLE10=Back When I Knew It All
TTITLE11=Roll With Me
TTITLE12=One In Every Crowd
TTITLE13=While You're Still Yound
EXTD=YEAR: 2012
EXTT0=
EXTT1=
EXTT2=
EXTT3=
EXTT4=
EXTT5=
EXTT6=
EXTT7=
EXTT8=
EXTT9=
EXTT10=
EXTT11=
EXTT12=
EXTT13=
PLAYORDER=
